<svg width="92" height="88" viewBox="0 0 92 88" fill="none" xmlns="http://www.w3.org/2000/svg">
<path d="M34 30H32V56C32 56.5304 32.2107 57.0391 32.5858 57.4142C32.9609 57.7893 33.4696 58 34 58H60V56H34V30Z" fill="black"/>
<path d="M60 37H53V39H56.59L49 46.59L44.71 42.29C44.617 42.1963 44.5064 42.1219 44.3846 42.0711C44.2627 42.0203 44.132 41.9942 44 41.9942C43.868 41.9942 43.7373 42.0203 43.6154 42.0711C43.4936 42.1219 43.383 42.1963 43.29 42.29L36 49.59L37.41 51L44 44.41L48.29 48.71C48.383 48.8037 48.4936 48.8781 48.6154 48.9289C48.7373 48.9797 48.868 49.0058 49 49.0058C49.132 49.0058 49.2627 48.9797 49.3846 48.9289C49.5064 48.8781 49.617 48.8037 49.71 48.71L58 40.41V44H60V37Z" fill="black"/>
<ellipse cx="46" cy="44" rx="46" ry="44" fill="#D6D1F8" fill-opacity="0.2"/>
</svg>
