<svg xmlns="http://www.w3.org/2000/svg" width="92" height="88" viewBox="0 0 92 88" fill="none">
  <path d="M56.6667 40V42H35.3333V40H56.6667ZM51.3333 32V34H35.3333V32H51.3333ZM46 56V46H56.6667V56H46ZM48.6667 48V54H54V48H48.6667ZM56.6667 36V38H35.3333V36H56.6667ZM30 28H62V60H30V28ZM59.3333 58V30H32.6667V58H59.3333ZM43.3333 54V56H35.3333V54H43.3333ZM43.3333 46V48H35.3333V46H43.3333ZM43.3333 50V52H35.3333V50H43.3333Z" fill="black"/>
  <ellipse cx="46" cy="44" rx="46" ry="44" fill="#D6D1F8" fill-opacity="0.2"/>
</svg>